<?xml version="1.0" standalone="no"?>
<!DOCTYPE svg PUBLIC "-//W3C//DTD SVG 20010904//EN"
 "http://www.w3.org/TR/2001/REC-SVG-20010904/DTD/svg10.dtd">
<svg version="1.0" xmlns="http://www.w3.org/2000/svg"
 width="500.000000pt" height="500.000000pt" viewBox="0 0 500.000000 500.000000"
 preserveAspectRatio="xMidYMid meet">

<g transform="translate(0.000000,500.000000) scale(0.100000,-0.100000)"
fill="#000000" stroke="none">
<path d="M3110 4015 c6 -8 20 -17 31 -20 11 -4 16 -11 12 -18 -4 -7 1 -6 10 2
11 9 17 10 17 2 0 -12 -6 -14 -70 -15 -35 -1 -45 -5 -48 -20 -2 -10 3 -23 11
-28 8 -4 14 -18 13 -31 -2 -20 1 -23 20 -19 13 2 22 7 20 11 -2 3 7 7 20 7 13
1 21 -2 18 -7 -3 -5 -12 -9 -20 -9 -9 0 -12 -5 -8 -12 5 -8 2 -9 -12 -4 -18 7
-18 6 1 -12 14 -13 22 -16 27 -8 5 8 8 7 8 -1 0 -20 12 -16 45 15 23 22 36 26
55 21 16 -4 19 -7 8 -8 -10 -1 -18 -5 -18 -11 0 -6 42 -10 106 -10 58 0 103 3
101 8 -3 4 72 6 165 4 168 -3 170 -3 165 18 -5 21 7 28 19 9 3 -6 0 -17 -8
-25 -12 -13 -14 -57 -10 -277 2 -145 8 -266 14 -272 6 -6 7 -3 2 9 -6 15 -4
17 7 11 11 -7 11 -5 -1 10 -10 12 -10 16 -2 11 7 -4 19 -2 27 4 8 7 15 11 16
9 8 -43 8 -53 -1 -39 -7 11 -10 11 -10 2 0 -7 7 -15 15 -18 8 -4 15 -14 15
-23 0 -14 -2 -14 -11 -1 -8 12 -10 12 -7 1 2 -8 11 -15 19 -16 10 -2 14 8 15
32 0 23 -2 29 -9 21 -6 -9 -7 -8 -3 5 3 10 6 20 6 22 0 2 10 1 23 -2 18 -4 19
-3 7 6 -13 9 -9 15 10 13 3 0 7 11 8 24 1 14 -2 23 -7 19 -6 -3 -9 4 -8 15 1
11 5 20 9 20 4 0 8 9 8 20 0 11 -4 20 -10 20 -5 0 -10 7 -10 16 0 8 5 12 11 9
7 -5 9 26 8 94 -1 56 -5 101 -10 101 -5 0 -9 5 -9 11 0 5 5 7 10 4 6 -3 10 3
10 14 0 12 -4 21 -10 21 -5 0 -10 5 -10 11 0 5 4 8 8 5 5 -3 9 1 9 9 0 8 -4
12 -9 9 -4 -3 -8 2 -8 11 0 9 4 14 8 11 5 -3 9 1 9 9 0 8 -4 12 -9 9 -4 -3 -8
0 -8 5 0 6 5 11 11 11 8 0 8 5 -1 15 -10 12 -10 15 1 15 11 0 11 2 -1 10 -13
8 -13 11 -1 19 18 12 6 65 -13 58 -8 -3 -13 1 -12 11 1 12 -7 17 -26 17 -14
-1 -25 3 -22 7 7 11 -53 13 -191 6 -71 -4 -212 -7 -312 -7 -170 1 -181 2 -186
20 -4 13 -14 19 -32 19 -23 0 -25 -2 -15 -15z m273 -42 c-7 -2 -19 -2 -25 0
-7 3 -2 5 12 5 14 0 19 -2 13 -5z m-258 -23 c4 -7 -2 -9 -19 -4 -16 4 -26 2
-26 -5 0 -6 10 -11 23 -11 12 0 32 -3 45 -6 16 -5 22 -2 22 10 0 9 8 16 18 16
14 0 14 -2 3 -9 -15 -10 -8 -41 9 -41 6 0 8 5 5 10 -3 6 -2 10 4 10 5 0 13 -4
16 -10 3 -5 1 -10 -5 -10 -6 0 -9 -4 -6 -9 4 -5 -3 -7 -14 -4 -11 3 -20 9 -20
14 0 9 -22 7 -73 -5 -14 -4 -12 -1 8 9 28 14 29 15 5 13 -30 -3 -50 8 -50 28
0 16 45 20 55 4z m303 3 c-10 -2 -26 -2 -35 0 -10 3 -2 5 17 5 19 0 27 -2 18
-5z m447 -3 c-3 -5 -12 -10 -18 -10 -7 0 -6 4 3 10 19 12 23 12 15 0z m45 -25
c0 -8 -4 -15 -9 -15 -5 0 -11 7 -15 15 -3 9 0 15 9 15 8 0 15 -7 15 -15z
m-395 -45 c3 -5 3 -10 -2 -11 -4 0 -16 -2 -25 -4 -9 -2 -19 3 -22 11 -6 16 39
20 49 4z m80 0 c4 -6 -8 -10 -29 -10 -20 0 -36 5 -36 10 0 6 13 10 29 10 17 0
33 -4 36 -10z m169 -6 c3 -8 2 -12 -4 -9 -6 3 -10 10 -10 16 0 14 7 11 14 -7z
m-576 -15 c3 -8 1 -11 -3 -7 -4 4 -19 2 -33 -3 -26 -10 -26 -10 -7 11 20 22
36 22 43 -1z m535 4 c-13 -2 -35 -2 -50 0 -16 2 -5 4 22 4 28 0 40 -2 28 -4z
m74 -88 c0 -8 -4 -12 -9 -9 -4 3 -8 9 -8 15 0 5 4 9 8 9 5 0 9 -7 9 -15z m0
-127 c-3 -8 -6 -5 -6 6 -1 11 2 17 5 13 3 -3 4 -12 1 -19z m19 -186 c-4 -3
-11 0 -16 8 -15 24 -11 33 6 15 9 -9 13 -19 10 -23z"/>
<path d="M1392 4000 c-272 -4 -324 -7 -332 -20 -16 -24 -8 -262 8 -268 11 -3
12 0 3 19 l-12 24 17 -22 c23 -32 34 -29 35 10 l1 32 7 -29 c8 -39 28 -44 34
-9 l4 28 2 -26 c0 -15 8 -30 17 -33 8 -3 12 -2 9 4 -3 6 -3 10 2 10 4 0 6 27
5 60 l-4 60 330 0 329 0 6 -107 c4 -58 7 -170 7 -247 0 -124 -3 -145 -20 -171
-25 -37 -25 -55 -2 -55 11 0 24 -12 31 -26 16 -36 47 -29 44 11 -1 17 0 23 3
15 3 -8 8 -22 11 -30 4 -8 6 -17 5 -20 0 -3 10 -5 23 -5 21 0 23 4 19 33 -4
30 -2 31 16 20 25 -16 38 -3 22 23 -12 18 -11 21 7 26 24 6 28 28 7 36 -12 5
-15 57 -18 299 -4 341 -3 339 -88 357 -28 6 -86 10 -128 9 -42 -1 -222 -5
-400 -8z"/>
<path d="M2971 3848 c-1 -27 3 -48 7 -48 4 0 6 17 4 38 -5 58 -10 62 -11 10z"/>
<path d="M2793 3858 c-20 -26 -26 -41 -15 -34 12 7 36 46 29 46 -3 0 -9 -6
-14 -12z"/>
<path d="M3226 3842 c-8 -13 -4 -62 6 -62 13 0 21 51 10 62 -6 6 -12 6 -16 0z"/>
<path d="M2194 3831 c3 -4 17 -6 31 -3 15 2 25 0 25 -7 0 -6 -4 -11 -10 -11
-5 0 -6 -8 -3 -17 6 -15 7 -15 14 3 5 11 8 13 8 5 1 -8 4 -12 7 -9 14 15 -18
48 -47 48 -17 0 -28 -4 -25 -9z"/>
<path d="M2576 3831 c-18 -7 -19 -18 -17 -182 1 -96 6 -178 11 -182 4 -5 8 7
8 26 0 43 8 57 31 57 29 0 44 -26 37 -62 -5 -25 -4 -30 6 -20 8 8 11 42 9 103
-3 109 10 154 47 167 23 7 26 14 27 55 l0 47 -70 -1 c-38 0 -79 -4 -89 -8z
m68 -193 c15 -25 -17 -57 -42 -42 -22 14 -28 44 -10 55 18 12 39 7 52 -13z"/>
<path d="M2162 3818 c-15 -15 -16 -35 -2 -43 6 -3 7 1 4 10 -4 8 -1 22 6 30
15 18 9 20 -8 3z"/>
<path d="M2802 3821 c-7 -4 -12 -14 -10 -22 2 -8 -2 -13 -8 -12 -6 1 -11 -5
-11 -12 0 -12 3 -12 15 -3 8 7 29 12 46 11 l31 -2 -30 7 c-33 8 -37 22 -8 33
13 6 14 8 3 8 -8 0 -21 -3 -28 -8z"/>
<path d="M2978 3783 c6 -2 18 -2 25 0 6 3 1 5 -13 5 -14 0 -19 -2 -12 -5z"/>
<path d="M2257 3749 c4 -13 8 -18 11 -10 2 7 -1 18 -6 23 -8 8 -9 4 -5 -13z"/>
<path d="M2165 3740 c-3 -5 1 -10 10 -10 9 0 13 5 10 10 -3 6 -8 10 -10 10 -2
0 -7 -4 -10 -10z"/>
<path d="M2308 3714 c4 -24 3 -26 -19 -19 -22 7 -23 6 -9 -10 15 -18 15 -61 0
-101 -8 -21 -13 -22 -69 -17 -42 4 -61 2 -61 -6 0 -6 9 -11 21 -11 11 0 29 -5
40 -11 16 -8 18 -13 8 -25 -9 -11 -9 -14 2 -14 10 0 10 -3 1 -12 -9 -9 -20 -8
-47 5 -41 19 -49 3 -15 -28 16 -15 41 -20 108 -23 120 -5 126 0 130 117 3 70
7 91 18 91 8 0 14 5 14 11 0 6 -7 9 -15 6 -17 -7 -30 9 -15 18 18 11 11 23
-10 18 -16 -4 -20 0 -20 18 -1 24 -1 24 -16 4 -14 -19 -16 -19 -28 -2 -18 24
-24 21 -18 -9z m50 -206 c5 -45 -57 -62 -72 -21 -13 32 4 54 37 51 26 -2 33
-8 35 -30z"/>
<path d="M1025 3710 c3 -5 10 -10 16 -10 5 0 9 5 9 10 0 6 -7 10 -16 10 -8 0
-12 -4 -9 -10z"/>
<path d="M1324 3707 c-2 -7 -3 -98 -1 -202 l2 -190 3 197 2 197 53 4 52 3 -53
2 c-35 1 -54 -2 -58 -11z"/>
<path d="M1505 3713 c96 -7 203 -7 198 0 -2 4 -57 6 -121 5 -64 -1 -99 -3 -77
-5z"/>
<path d="M1342 3655 c0 -16 2 -22 5 -12 2 9 2 23 0 30 -3 6 -5 -1 -5 -18z"/>
<path d="M1362 3655 c0 -16 2 -22 5 -12 2 9 2 23 0 30 -3 6 -5 -1 -5 -18z"/>
<path d="M1696 3667 c3 -10 9 -15 12 -12 3 3 0 11 -7 18 -10 9 -11 8 -5 -6z"/>
<path d="M2983 3645 c0 -22 2 -30 4 -17 2 12 2 30 0 40 -3 9 -5 -1 -4 -23z"/>
<path d="M1061 3603 c0 -40 2 -73 7 -73 4 0 6 24 4 52 -5 89 -9 97 -11 21z"/>
<path d="M1701 3620 c-9 -97 -9 -112 0 -103 6 6 8 37 6 69 -2 32 -4 48 -6 34z"/>
<path d="M1092 3595 c0 -16 2 -22 5 -12 2 9 2 23 0 30 -3 6 -5 -1 -5 -18z"/>
<path d="M2991 3441 c-1 -60 2 -112 6 -114 4 -3 8 46 8 109 0 63 -3 114 -6
114 -4 0 -8 -49 -8 -109z"/>
<path d="M2165 3520 c3 -5 11 -10 16 -10 6 0 7 5 4 10 -3 6 -11 10 -16 10 -6
0 -7 -4 -4 -10z"/>
<path d="M1361 3504 c0 -11 3 -14 6 -6 3 7 2 16 -1 19 -3 4 -6 -2 -5 -13z"/>
<path d="M1342 3490 c0 -14 2 -19 5 -12 2 6 2 18 0 25 -3 6 -5 1 -5 -13z"/>
<path d="M3117 3375 c3 -55 7 -102 9 -104 7 -8 2 103 -6 154 -6 35 -6 19 -3
-50z"/>
<path d="M1091 3444 c0 -11 3 -14 6 -6 3 7 2 16 -1 19 -3 4 -6 -2 -5 -13z"/>
<path d="M1172 3435 c0 -16 2 -22 5 -12 2 9 2 23 0 30 -3 6 -5 -1 -5 -18z"/>
<path d="M1358 3405 c-1 -30 0 -55 5 -55 4 0 7 25 7 55 0 71 -7 71 -12 0z"/>
<path d="M2475 3449 l-20 -9 20 2 c11 1 31 -4 44 -11 14 -8 21 -9 17 -2 -12
20 -40 29 -61 20z"/>
<path d="M1342 3430 c0 -14 2 -19 5 -12 2 6 2 18 0 25 -3 6 -5 1 -5 -13z"/>
<path d="M1698 3435 c-5 -6 1 -98 8 -104 2 -2 4 21 4 52 0 56 -1 62 -12 52z"/>
<path d="M2424 3363 c1 -36 5 -58 10 -53 5 5 5 31 -1 62 l-10 53 1 -62z"/>
<path d="M2542 3370 c0 -14 2 -19 5 -12 2 6 2 18 0 25 -3 6 -5 1 -5 -13z"/>
<path d="M1062 3285 c0 -71 1 -75 8 -34 4 26 4 62 0 80 -6 26 -8 15 -8 -46z"/>
<path d="M2546 3327 c3 -10 9 -15 12 -12 3 3 0 11 -7 18 -10 9 -11 8 -5 -6z"/>
<path d="M1360 3318 c0 -5 72 -8 160 -8 88 0 160 3 160 8 0 4 -72 7 -160 7
-88 0 -160 -3 -160 -7z"/>
<path d="M2990 3277 c0 -20 4 -37 8 -37 9 0 7 58 -2 67 -3 4 -6 -10 -6 -30z"/>
<path d="M3735 3300 c2 -4 14 -10 26 -13 16 -4 19 -3 11 5 -14 14 -45 20 -37
8z"/>
<path d="M3945 3300 c-4 -6 -11 -8 -16 -4 -5 3 -9 2 -8 -3 1 -4 1 -15 -1 -23
-1 -11 -4 -9 -10 5 -8 19 -9 19 -9 -2 -1 -31 11 -29 37 7 13 17 20 30 18 30
-3 0 -8 -5 -11 -10z"/>
<path d="M2568 3293 c7 -3 16 -2 19 1 4 3 -2 6 -13 5 -11 0 -14 -3 -6 -6z"/>
<path d="M2616 3291 c8 -8 54 -7 54 1 0 5 -13 7 -30 6 -16 -1 -27 -4 -24 -7z"/>
<path d="M2680 3296 c0 -2 11 -6 25 -8 13 -3 22 -1 19 3 -5 9 -44 13 -44 5z"/>
<path d="M1091 3274 c0 -11 3 -14 6 -6 3 7 2 16 -1 19 -3 4 -6 -2 -5 -13z"/>
<path d="M1176 3243 c7 -65 14 -67 14 -5 0 29 -5 52 -10 52 -6 0 -8 -19 -4
-47z"/>
<path d="M2162 3278 c-7 -7 -12 -19 -11 -27 0 -11 3 -10 8 4 4 11 19 23 32 26
21 6 21 7 4 8 -12 1 -26 -4 -33 -11z"/>
<path d="M2252 3285 c2 -2 18 -5 36 -7 18 -1 32 -5 32 -9 0 -9 60 -3 70 7 5 5
-24 10 -67 11 -42 2 -74 1 -71 -2z"/>
<path d="M2750 3280 c0 -13 18 -22 24 -11 3 5 -1 11 -9 15 -8 3 -15 1 -15 -4z"/>
<path d="M3801 3273 c0 -11 3 -13 6 -5 2 6 9 10 14 6 5 -3 9 0 9 5 0 6 -7 11
-15 11 -8 0 -15 -8 -14 -17z"/>
<path d="M3952 3274 c-7 -8 -8 -14 -3 -14 10 0 25 19 20 25 -2 1 -10 -3 -17
-11z"/>
<path d="M2248 3263 c7 -3 16 -2 19 1 4 3 -2 6 -13 5 -11 0 -14 -3 -6 -6z"/>
<path d="M2646 3258 c3 -4 11 -5 19 -1 21 7 19 12 -4 10 -11 0 -18 -5 -15 -9z"/>
<path d="M3980 3252 c0 -5 7 -9 15 -9 8 0 15 4 15 9 0 4 -7 8 -15 8 -8 0 -15
-4 -15 -8z"/>
<path d="M2710 3240 c0 -5 4 -10 9 -10 6 0 13 5 16 10 3 6 -1 10 -9 10 -9 0
-16 -4 -16 -10z"/>
<path d="M3105 3241 c-3 -5 -1 -12 5 -16 5 -3 10 1 10 9 0 18 -6 21 -15 7z"/>
<path d="M3952 3225 c-11 -23 -10 -24 14 -13 13 6 21 14 17 17 -4 4 -11 10
-14 14 -3 4 -11 -4 -17 -18z"/>
<path d="M1993 3140 c0 -47 2 -66 4 -42 2 23 2 61 0 85 -2 23 -4 4 -4 -43z"/>
<path d="M2141 3192 c0 -16 3 -21 6 -12 3 8 10 18 15 21 5 3 3 9 -6 12 -12 5
-16 0 -15 -21z"/>
<path d="M2799 3215 c-1 -3 -2 -10 -3 -17 -1 -8 -18 -11 -53 -9 -39 2 -53 -1
-53 -11 0 -10 -2 -10 -8 -1 -5 7 -7 -6 -7 -30 3 -68 4 -77 16 -77 7 0 9 10 5
25 -13 50 29 80 56 41 5 -7 8 -4 8 7 0 25 19 21 32 -8 9 -19 8 -29 -6 -49 -19
-31 -20 -36 -3 -36 28 0 50 91 26 105 -6 4 -7 19 -4 36 4 16 4 29 1 29 -3 0
-7 -2 -7 -5z"/>
<path d="M2983 3135 c0 -44 2 -61 4 -37 2 23 2 59 0 80 -2 20 -4 1 -4 -43z"/>
<path d="M1870 3190 c0 -5 5 -10 11 -10 5 0 7 5 4 10 -3 6 -8 10 -11 10 -2 0
-4 -4 -4 -10z"/>
<path d="M2241 3153 c-1 -26 0 -45 2 -43 7 7 12 78 6 84 -3 3 -6 -16 -8 -41z"/>
<path d="M2298 3193 c17 -2 47 -2 65 0 17 2 3 4 -33 4 -36 0 -50 -2 -32 -4z"/>
<path d="M1052 3129 c-2 -53 2 -69 16 -80 15 -12 16 -12 5 1 -7 9 -14 45 -16
80 l-3 65 -2 -66z"/>
<path d="M2410 3178 c6 -7 10 -67 10 -135 0 -68 3 -123 8 -123 4 0 6 55 5 122
-2 94 -6 125 -18 135 -8 7 -10 8 -5 1z"/>
<path d="M2583 3183 c15 -2 39 -2 55 0 15 2 2 4 -28 4 -30 0 -43 -2 -27 -4z"/>
<path d="M3923 3125 c0 -38 2 -53 4 -32 2 20 2 52 0 70 -2 17 -4 1 -4 -38z"/>
<path d="M3779 3163 c-13 -16 -12 -17 4 -4 16 13 21 21 13 21 -2 0 -10 -8 -17
-17z"/>
<path d="M2517 3153 c3 -7 6 -13 8 -13 2 0 5 6 8 13 3 8 -1 14 -8 14 -7 0 -11
-6 -8 -14z"/>
<path d="M2150 3130 c0 -5 5 -10 11 -10 5 0 7 5 4 10 -3 6 -8 10 -11 10 -2 0
-4 -4 -4 -10z"/>
<path d="M2507 3101 c-4 -17 -3 -21 5 -13 5 5 8 16 6 23 -3 8 -7 3 -11 -10z"/>
<path d="M2240 3089 c0 -5 -4 -7 -10 -4 -5 3 -7 0 -4 -8 3 -8 -2 -20 -11 -27
-8 -7 -15 -17 -15 -23 0 -6 7 -1 16 11 17 24 40 29 47 10 4 -10 6 -10 6 0 1 7
-5 15 -13 18 -8 3 -12 12 -9 20 3 8 2 14 -1 14 -3 0 -6 -5 -6 -11z"/>
<path d="M2169 3088 c0 -2 -2 -19 -5 -38 -4 -32 -3 -33 10 -15 9 13 11 24 5
31 -7 8 -5 14 3 17 10 4 10 6 1 6 -7 1 -13 0 -14 -1z"/>
<path d="M2130 3070 c-13 -8 -12 -10 3 -10 9 0 17 5 17 10 0 12 -1 12 -20 0z"/>
<path d="M2526 3037 c3 -10 9 -15 12 -12 3 3 0 11 -7 18 -10 9 -11 8 -5 -6z"/>
<path d="M3910 3042 c0 -8 -21 -13 -57 -14 l-58 -2 54 -3 c50 -4 84 8 68 24
-4 3 -7 1 -7 -5z"/>
<path d="M1128 3033 c12 -2 32 -2 45 0 12 2 2 4 -23 4 -25 0 -35 -2 -22 -4z"/>
<path d="M1325 3029 l-60 -6 78 -1 c74 -2 96 2 60 9 -10 2 -45 1 -78 -2z"/>
<path d="M1535 3030 l-110 -6 123 -2 c80 -1 121 2 117 8 -3 6 -9 9 -13 8 -4
-1 -56 -5 -117 -8z"/>
<path d="M3053 3033 c9 -2 23 -2 30 0 6 3 -1 5 -18 5 -16 0 -22 -2 -12 -5z"/>
<path d="M1753 3023 c42 -2 112 -2 155 0 42 1 7 3 -78 3 -85 0 -120 -2 -77 -3z"/>
<path d="M3110 3012 c0 -45 9 -52 69 -52 65 0 81 -11 81 -56 0 -37 20 -57 52
-52 18 2 25 13 35 51 6 27 17 55 24 63 18 22 65 17 93 -11 15 -15 37 -25 54
-25 15 0 43 11 62 25 41 30 88 32 123 5 45 -36 87 -21 87 32 l0 28 -227 0
c-126 0 -279 3 -340 7 -110 6 -113 5 -113 -15z"/>
<path d="M2599 3003 c38 -5 70 -28 48 -36 -8 -3 -7 -10 7 -26 11 -11 14 -21 8
-21 -6 0 -14 5 -18 12 -5 8 -10 7 -18 -4 -6 -8 -18 -17 -26 -21 -9 -3 -3 -6
13 -6 45 -1 67 15 67 52 0 45 -16 57 -69 55 -40 -1 -41 -2 -12 -5z"/>
<path d="M2512 2970 c0 -14 2 -19 5 -12 2 6 2 18 0 25 -3 6 -5 1 -5 -13z"/>
<path d="M2560 2930 c-9 -6 -10 -10 -3 -10 6 0 15 5 18 10 8 12 4 12 -15 0z"/>
<path d="M2505 2920 c-19 -8 -19 -9 3 -9 12 -1 22 4 22 9 0 6 -1 10 -2 9 -2 0
-12 -4 -23 -9z"/>
<path d="M1123 2903 c9 -2 23 -2 30 0 6 3 -1 5 -18 5 -16 0 -22 -2 -12 -5z"/>
<path d="M1896 2881 c-5 -7 5 -11 28 -11 39 0 55 -14 28 -24 -34 -12 -67 -36
-51 -36 8 0 20 5 27 12 10 10 16 9 28 -4 23 -23 9 -38 -37 -38 -24 0 -38 -4
-34 -10 8 -13 56 -13 88 -1 30 12 50 61 32 78 -7 7 -15 16 -16 22 -6 15 -85
25 -93 12z"/>
<path d="M2828 2883 c12 -2 30 -2 40 0 9 3 -1 5 -23 4 -22 0 -30 -2 -17 -4z"/>
<path d="M3132 2874 c-18 -12 -22 -25 -22 -64 0 -57 -9 -65 -66 -61 -67 4 -77
-14 -72 -125 5 -110 14 -126 72 -122 l41 3 0 52 c0 28 3 54 6 58 4 3 98 7 209
8 190 2 202 1 212 -17 16 -30 16 -125 -1 -135 -7 -5 -41 -6 -76 -3 -78 6 -150
-4 -170 -24 -10 -11 -15 -37 -16 -82 0 -37 -4 -87 -7 -112 l-7 -45 -55 -7
c-74 -9 -83 -22 -78 -127 4 -75 3 -84 -14 -89 -24 -6 -23 -22 2 -22 23 0 24
-4 10 -30 -13 -24 3 -35 20 -15 18 21 29 19 23 -5 -4 -14 0 -20 11 -20 9 0 16
8 16 20 0 23 15 27 24 5 9 -23 28 -18 24 8 -2 16 1 21 15 19 18 -3 23 13 7 23
-5 3 -10 30 -10 60 0 47 3 53 23 58 45 11 256 7 263 -4 3 -6 9 -39 11 -74 4
-46 2 -65 -8 -71 -8 -5 -67 -9 -131 -9 -78 0 -121 -4 -129 -12 -8 -8 -11 -36
-10 -75 1 -34 -1 -90 -5 -124 l-6 -63 -62 -3 c-59 -3 -61 -4 -64 -31 -3 -26
-2 -27 17 -15 28 17 76 -8 75 -40 0 -11 3 -19 8 -16 4 3 8 1 8 -5 0 -7 18 -9
48 -5 94 11 91 8 94 72 l3 57 50 3 c64 4 75 15 75 71 0 61 10 76 46 67 75 -19
81 -18 97 4 11 16 14 37 10 81 l-6 60 54 -7 c30 -4 63 -14 73 -23 18 -15 19
-15 12 13 -6 25 -5 28 13 23 25 -6 39 11 17 19 -20 8 -21 24 -1 24 8 0 15 5
15 10 0 6 -7 10 -16 10 -11 0 -14 6 -9 20 5 16 2 20 -17 18 -17 -2 -22 1 -20
15 4 21 -11 22 -28 2 -16 -19 -84 -20 -99 -1 -9 11 -10 20 -1 36 6 11 10 35 8
53 -3 31 -5 32 -53 37 -27 3 -58 10 -68 16 -23 13 -33 79 -18 117 10 26 14 27
76 27 l65 0 0 70 0 70 40 -6 c21 -4 51 -4 65 0 22 6 25 11 25 55 0 73 5 81 56
81 33 0 46 -5 54 -20 14 -26 34 -26 27 1 -5 18 -2 20 24 14 30 -7 42 11 14 21
-21 8 -19 21 5 27 11 3 20 10 20 16 0 6 -9 11 -20 11 -23 0 -27 15 -5 24 28
11 16 29 -15 23 -27 -6 -30 -4 -30 20 l0 27 -29 -28 c-41 -39 -86 -34 -87 9
-2 57 -15 103 -30 109 -9 3 -33 6 -54 6 -47 0 -62 -21 -58 -80 3 -50 -8 -61
-68 -68 -56 -6 -74 11 -74 71 0 59 -14 77 -60 77 -51 0 -70 -20 -70 -75 0 -54
-16 -65 -85 -56 l-50 6 -7 48 c-3 27 -12 55 -18 63 -16 18 -50 18 -78 -2z"/>
<path d="M2097 2873 c18 -2 50 -2 70 0 21 2 7 4 -32 4 -38 0 -55 -2 -38 -4z"/>
<path d="M2360 2876 c0 -2 7 -7 16 -10 8 -3 12 -2 9 4 -6 10 -25 14 -25 6z"/>
<path d="M2726 2867 c-16 -12 -16 -14 -3 -14 9 0 18 6 21 14 3 7 4 13 3 13 -2
0 -11 -6 -21 -13z"/>
<path d="M2920 2876 c0 -2 8 -10 18 -17 15 -13 16 -12 3 4 -13 16 -21 21 -21
13z"/>
<path d="M2030 2860 c0 -4 11 -10 25 -12 13 -3 22 -2 20 2 -7 11 -45 20 -45
10z"/>
<path d="M2233 2853 c9 -2 25 -2 35 0 9 3 1 5 -18 5 -19 0 -27 -2 -17 -5z"/>
<path d="M1202 2830 c0 -14 2 -19 5 -12 2 6 2 18 0 25 -3 6 -5 1 -5 -13z"/>
<path d="M1270 2835 c0 -8 7 -15 15 -15 8 0 15 7 15 15 0 8 -7 15 -15 15 -8 0
-15 -7 -15 -15z"/>
<path d="M2948 2813 c5 -21 7 -23 10 -9 2 10 0 22 -6 28 -6 6 -7 0 -4 -19z"/>
<path d="M2030 2820 c0 -5 5 -10 10 -10 6 0 10 5 10 10 0 6 -4 10 -10 10 -5 0
-10 -4 -10 -10z"/>
<path d="M2183 2813 c9 -2 23 -2 30 0 6 3 -1 5 -18 5 -16 0 -22 -2 -12 -5z"/>
<path d="M1080 2787 c8 -9 31 -19 50 -22 l35 -5 -35 11 c-19 6 -42 16 -50 22
-13 9 -13 9 0 -6z"/>
<path d="M2162 2787 c-8 -9 0 -11 34 -9 24 2 57 -1 74 -6 36 -13 40 -5 4 8
-43 17 -101 21 -112 7z"/>
<path d="M2710 2778 c0 -6 7 -8 15 -4 8 3 15 1 15 -4 0 -6 37 -10 86 -10 47 0
83 4 80 9 -3 5 -35 6 -70 4 -36 -3 -73 -2 -83 2 -29 13 -43 14 -43 3z"/>
<path d="M2125 2759 c-4 -6 -5 -12 -2 -15 2 -3 7 2 10 11 7 17 1 20 -8 4z"/>
<path d="M2373 2743 c-18 -6 -16 -23 1 -23 17 0 30 16 19 23 -5 2 -14 2 -20 0z"/>
<path d="M2303 2705 c0 -22 2 -30 4 -17 2 12 2 30 0 40 -3 9 -5 -1 -4 -23z"/>
<path d="M2442 2731 c-7 -4 -16 -21 -21 -37 -6 -24 -3 -33 16 -51 37 -35 123
-28 123 9 0 5 -9 4 -19 -2 -44 -23 -111 1 -78 29 8 6 17 9 20 6 4 -3 4 -2 1 3
-3 4 -11 7 -17 7 -7 0 -12 7 -12 15 0 11 11 15 43 14 23 0 42 3 42 8 0 10 -81
10 -98 -1z"/>
<path d="M2113 2670 c0 -36 2 -50 4 -32 2 17 2 47 0 65 -2 17 -4 3 -4 -33z"/>
<path d="M2033 2665 c0 -22 2 -30 4 -17 2 12 2 30 0 40 -3 9 -5 -1 -4 -23z"/>
<path d="M2365 2690 c-3 -5 -1 -10 4 -10 6 0 11 5 11 10 0 6 -2 10 -4 10 -3 0
-8 -4 -11 -10z"/>
<path d="M2343 2653 c12 -14 25 -19 35 -15 15 5 14 7 -3 10 -11 2 -27 9 -35
15 -8 7 -7 2 3 -10z"/>
<path d="M1872 2621 c2 -19 -3 -27 -22 -32 l-25 -7 23 -7 c22 -7 22 -9 6 -26
-16 -18 -16 -19 5 -19 19 0 20 -3 11 -20 -10 -19 -9 -20 14 -14 22 5 26 3 27
-17 l0 -24 11 23 c8 16 17 21 30 16 10 -3 25 -1 32 5 12 10 11 20 -3 59 -15
42 -20 47 -51 50 -19 2 -40 11 -47 20 -12 15 -13 14 -11 -7z"/>
<path d="M1240 2623 c-39 -14 -50 -36 -50 -95 l0 -58 -54 0 c-33 0 -58 -5 -65
-14 -8 -10 -9 -45 -4 -122 8 -102 9 -109 33 -121 29 -15 225 -17 284 -3 46 10
56 23 56 70 0 56 10 63 91 64 l74 1 -3 -45 c-2 -25 -10 -52 -18 -61 -8 -8 -14
-21 -14 -27 0 -15 17 -16 25 -2 12 19 25 10 25 -16 0 -32 24 -27 28 6 4 23 4
23 28 -6 l23 -29 1 33 c0 37 2 38 35 16 22 -15 25 -15 25 -1 0 9 -4 19 -10 22
-18 11 -11 27 10 22 29 -7 25 11 -5 25 -15 7 -25 20 -25 32 -5 292 -6 296 -61
296 -39 0 -62 -36 -53 -84 6 -33 4 -36 -17 -38 -13 0 -37 -3 -54 -4 -31 -4
-121 -6 -187 -5 -35 1 -38 4 -38 29 0 46 -20 101 -40 112 -10 5 -20 10 -22 9
-2 0 -10 -3 -18 -6z m133 -170 c-24 -5 -33 -42 -10 -44 10 0 10 -2 0 -6 -22
-8 -14 -21 15 -26 25 -4 25 -4 -5 -6 -33 -1 -33 0 -33 44 0 43 1 45 28 44 23
-2 24 -2 5 -6z m160 -3 c-33 -13 -28 -30 8 -30 26 0 30 -3 27 -22 -2 -18 -10
-23 -33 -25 -27 -2 -28 -1 -6 5 37 11 38 32 2 32 -24 0 -31 4 -31 19 0 20 13
29 40 30 8 0 5 -4 -7 -9z m97 -8 c0 -10 5 -23 11 -29 14 -14 5 -43 -13 -42
-10 0 -10 2 0 6 21 8 13 33 -10 34 -13 0 -17 3 -10 6 6 2 12 11 12 18 0 7 -6
16 -12 18 -8 3 -6 6 5 6 10 1 17 -6 17 -17z m-315 -32 c0 -43 -27 -62 -52 -37
-17 18 -17 18 8 12 24 -6 27 -3 31 24 2 17 1 33 -4 35 -5 2 -3 3 4 2 7 -2 13
-17 13 -36z m109 25 c-5 -11 1 -15 24 -15 36 0 49 -15 32 -35 -13 -16 -60 -21
-60 -7 0 5 10 8 21 8 12 -1 24 5 26 12 3 7 -5 12 -21 12 -27 0 -41 14 -31 30
9 15 15 12 9 -5z"/>
<path d="M2655 2603 c11 -3 26 -10 34 -17 10 -7 13 -7 8 0 -4 7 10 11 40 13
80 3 61 11 -23 10 -43 -1 -70 -4 -59 -6z"/>
<path d="M1988 2593 c7 -3 16 -2 19 1 4 3 -2 6 -13 5 -11 0 -14 -3 -6 -6z"/>
<path d="M2120 2553 c-3 -29 -1 -48 3 -44 5 5 7 28 5 52 l-3 44 -5 -52z"/>
<path d="M2569 2583 c-12 -16 -12 -17 1 -7 8 6 22 14 30 17 13 5 12 6 -1 6 -9
1 -23 -7 -30 -16z"/>
<path d="M2796 2592 c-3 -6 -1 -14 5 -17 15 -10 25 3 12 16 -7 7 -13 7 -17 1z"/>
<path d="M2560 2531 c0 -6 4 -13 10 -16 6 -3 7 1 4 9 -7 18 -14 21 -14 7z"/>
<path d="M2595 2500 c-19 -8 -19 -9 3 -9 12 -1 22 4 22 9 0 6 -1 10 -2 9 -2 0
-12 -4 -23 -9z"/>
<path d="M2718 2499 c-8 -6 1 -9 25 -9 20 0 37 2 37 4 0 9 -50 12 -62 5z"/>
<path d="M2180 2471 c0 -5 15 -7 33 -6 17 2 39 -2 47 -8 13 -10 13 -10 1 6
-14 18 -81 25 -81 8z"/>
<path d="M2156 2453 c-6 -14 -5 -15 5 -6 7 7 10 15 7 18 -3 3 -9 -2 -12 -12z"/>
<path d="M2850 2455 c-7 -9 -11 -17 -9 -20 3 -2 10 5 17 15 14 24 10 26 -8 5z"/>
<path d="M2938 2448 c-3 -16 -1 -28 3 -28 5 0 9 -10 10 -22 0 -13 3 -18 5 -12
2 6 1 28 -4 50 -8 37 -9 38 -14 12z"/>
<path d="M2265 2430 c-3 -5 -1 -10 4 -10 6 0 11 5 11 10 0 6 -2 10 -4 10 -3 0
-8 -4 -11 -10z"/>
<path d="M2150 2415 c0 -8 4 -15 8 -15 5 0 9 7 9 15 0 8 -4 15 -9 15 -4 0 -8
-7 -8 -15z"/>
<path d="M2833 2396 c1 -17 9 -31 17 -33 10 -3 11 -2 4 4 -7 4 -14 19 -17 33
-4 22 -5 21 -4 -4z"/>
<path d="M2267 2391 c-3 -13 -10 -20 -16 -17 -5 4 -12 2 -15 -3 -8 -13 22 -7
35 6 6 6 9 17 7 24 -3 8 -7 4 -11 -10z"/>
<path d="M2195 2380 c3 -5 8 -10 11 -10 2 0 4 5 4 10 0 6 -5 10 -11 10 -5 0
-7 -4 -4 -10z"/>
<path d="M3897 2364 c-2 -3 0 -19 6 -35 12 -31 3 -59 -22 -67 -8 -3 -11 7 -9
30 2 35 -7 58 -22 58 -5 0 -4 -12 3 -27 9 -21 9 -27 -1 -31 -6 -2 -12 -10 -12
-18 0 -8 -4 -14 -10 -14 -15 0 -30 36 -30 71 0 21 -3 30 -10 23 -15 -15 0
-253 17 -270 19 -18 87 -18 103 0 14 18 30 223 19 253 -8 23 -23 36 -32 27z
m-2 -164 c8 -26 -11 -50 -40 -50 -25 0 -39 23 -30 51 9 27 61 26 70 -1z"/>
<path d="M3850 2190 c0 -5 5 -10 11 -10 5 0 7 5 4 10 -3 6 -8 10 -11 10 -2 0
-4 -4 -4 -10z"/>
<path d="M2408 2341 c-64 -3 -120 -9 -124 -13 -4 -5 -7 -35 -7 -67 l0 -59 -54
-4 c-29 -3 -56 -8 -60 -12 -5 -4 -10 -56 -11 -115 -3 -80 0 -110 10 -118 9 -7
72 -9 196 -5 l182 5 0 128 0 129 64 0 c66 0 96 6 96 20 0 5 -18 6 -39 3 -36
-5 -41 -3 -46 20 -12 47 -3 62 40 67 27 3 35 7 24 12 -29 11 -149 16 -271 9z
m156 -57 c7 -19 -10 -44 -29 -44 -19 0 -36 25 -29 44 3 9 16 16 29 16 13 0 26
-7 29 -16z"/>
<path d="M1897 2322 c-19 -21 -22 -64 -7 -93 13 -24 81 -26 104 -3 20 20 20
63 0 92 -19 28 -74 30 -97 4z"/>
<path d="M2987 2329 c7 -7 15 -10 18 -7 3 3 -2 9 -12 12 -14 6 -15 5 -6 -5z"/>
<path d="M3020 2332 c0 -5 7 -9 15 -9 8 0 12 4 9 9 -3 4 -9 8 -15 8 -5 0 -9
-4 -9 -8z"/>
<path d="M3072 2326 c10 -7 14 -17 10 -21 -4 -5 -1 -5 6 -1 10 6 10 11 1 22
-6 8 -17 14 -23 14 -6 0 -3 -7 6 -14z"/>
<path d="M3098 2260 c3 -22 -1 -29 -17 -35 -11 -3 -26 -3 -33 1 -10 5 -10 4
-1 -6 19 -21 63 3 63 34 0 14 -4 27 -8 30 -5 3 -6 -8 -4 -24z"/>
<path d="M2970 2264 c0 -10 5 -26 10 -34 8 -11 9 -7 4 15 -8 37 -14 45 -14 19z"/>
<path d="M3001 2254 c0 -11 3 -14 6 -6 3 7 2 16 -1 19 -3 4 -6 -2 -5 -13z"/>
<path d="M3010 2220 c0 -5 5 -10 11 -10 5 0 7 5 4 10 -3 6 -8 10 -11 10 -2 0
-4 -4 -4 -10z"/>
<path d="M2940 2186 l0 -37 -47 3 c-44 3 -48 5 -51 31 -2 16 -8 26 -15 24 -12
-4 -12 -18 -1 -96 l6 -43 -66 4 c-49 3 -65 1 -62 -8 3 -7 -5 -15 -17 -18 -19
-5 -20 -8 -7 -16 13 -9 13 -12 -2 -24 -24 -18 -23 -26 3 -26 15 0 20 -5 17
-22 -3 -23 2 -25 35 -13 12 5 17 3 15 -5 -2 -7 3 -15 10 -17 6 -3 12 2 12 11
0 23 26 20 51 -5 18 -18 21 -30 17 -75 -3 -33 0 -56 6 -59 6 -3 -8 -3 -32 -1
-23 2 -40 0 -37 -4 3 -4 -4 -6 -15 -3 -16 4 -20 0 -21 -23 -1 -16 -1 -32 -1
-35 1 -4 -8 -5 -18 -2 -15 4 -20 0 -20 -16 0 -11 -1 -24 -2 -27 -4 -9 91 -11
134 -3 21 3 36 3 33 0 -5 -9 132 -4 145 4 6 3 16 3 23 -2 18 -11 76 -13 82 -3
4 6 -2 7 -12 3 -15 -6 -16 -4 -6 8 7 8 11 35 10 59 -2 41 -4 45 -26 42 -15 -2
-21 0 -17 7 4 6 0 11 -9 11 -9 0 -14 -3 -12 -7 2 -5 -4 -16 -15 -25 -14 -14
-18 -15 -18 -4 0 8 3 16 8 19 4 2 1 2 -6 0 -8 -1 -24 -3 -36 -3 -14 0 -27 -9
-34 -22 l-11 -23 -6 22 c-4 12 -17 24 -29 27 -15 3 -12 4 9 4 70 0 64 -19 63
202 -1 152 -5 203 -15 212 -10 8 -13 3 -13 -26z m-13 -112 c8 -22 -9 -48 -35
-52 -16 -2 -23 3 -28 22 -3 14 -3 30 1 35 10 17 55 13 62 -5z m-73 -318 c-3
-8 0 -17 5 -21 17 -10 3 -25 -22 -24 -12 0 -16 3 -9 6 6 2 12 11 12 19 0 8 -6
14 -12 15 -10 0 8 11 29 18 1 1 0 -5 -3 -13z m96 -50 c0 -8 -7 -16 -15 -20
-12 -4 -13 -2 -2 14 14 24 17 25 17 6z m-165 -16 c3 -5 1 -10 -4 -10 -6 0 -11
5 -11 10 0 6 2 10 4 10 3 0 8 -4 11 -10z"/>
<path d="M2877 2177 c-3 -8 1 -14 9 -14 16 0 19 13 5 21 -5 3 -11 0 -14 -7z"/>
<path d="M1750 2081 c14 -4 50 -4 80 -1 53 7 52 7 -25 8 -49 0 -70 -3 -55 -7z"/>
<path d="M1059 2063 c-13 -16 -12 -17 2 -5 13 10 67 12 214 11 108 0 199 2
202 5 4 3 -86 6 -199 6 -184 0 -207 -2 -219 -17z"/>
<path d="M1937 2069 c7 -7 15 -10 18 -7 3 3 -2 9 -12 12 -14 6 -15 5 -6 -5z"/>
<path d="M1648 2053 c7 -3 16 -2 19 1 4 3 -2 6 -13 5 -11 0 -14 -3 -6 -6z"/>
<path d="M1750 2050 c0 -5 7 -10 15 -10 8 0 15 5 15 10 0 6 -7 10 -15 10 -8 0
-15 -4 -15 -10z"/>
<path d="M1040 2005 c0 -8 5 -15 10 -15 6 0 10 7 10 15 0 8 -4 15 -10 15 -5 0
-10 -7 -10 -15z"/>
<path d="M1990 1925 c0 -45 -4 -65 -12 -65 -9 0 -10 -3 -2 -8 6 -4 11 -22 12
-41 0 -18 3 -36 6 -39 3 -3 6 45 6 106 0 62 -2 112 -5 112 -3 0 -5 -29 -5 -65z"/>
<path d="M1033 1935 c0 -27 2 -38 4 -22 2 15 2 37 0 50 -2 12 -4 0 -4 -28z"/>
<path d="M1653 1953 c9 -2 23 -2 30 0 6 3 -1 5 -18 5 -16 0 -22 -2 -12 -5z"/>
<path d="M1578 1933 c29 -2 74 -2 100 0 26 2 2 3 -53 3 -55 0 -76 -1 -47 -3z"/>
<path d="M1168 1840 c-2 -49 0 -100 4 -112 3 -13 6 28 7 90 1 61 -1 112 -3
112 -3 0 -6 -40 -8 -90z"/>
<path d="M1850 1920 c0 -5 5 -10 11 -10 5 0 7 5 4 10 -3 6 -8 10 -11 10 -2 0
-4 -4 -4 -10z"/>
<path d="M1971 1914 c0 -11 3 -14 6 -6 3 7 2 16 -1 19 -3 4 -6 -2 -5 -13z"/>
<path d="M2596 1921 c-4 -5 3 -7 14 -4 23 6 26 13 6 13 -8 0 -17 -4 -20 -9z"/>
<path d="M2562 1908 c-7 -7 -11 -21 -11 -32 1 -21 1 -21 6 -1 3 11 10 26 15
33 13 15 6 16 -10 0z"/>
<path d="M2658 1913 c6 -2 12 -13 12 -23 0 -10 5 -22 10 -25 12 -8 13 -3 0 29
-5 14 -15 26 -22 25 -10 0 -10 -2 0 -6z"/>
<path d="M2575 1890 c-3 -6 1 -7 9 -4 18 7 21 14 7 14 -6 0 -13 -4 -16 -10z"/>
<path d="M1040 1823 c0 -24 3 -33 9 -25 7 12 4 62 -5 62 -2 0 -4 -17 -4 -37z"/>
<path d="M2608 1853 c6 -2 18 -2 25 0 6 3 1 5 -13 5 -14 0 -19 -2 -12 -5z"/>
<path d="M1854 1625 c0 -110 2 -156 3 -103 2 53 2 143 0 200 -1 57 -3 13 -3
-97z"/>
<path d="M2613 1813 c9 -2 25 -2 35 0 9 3 1 5 -18 5 -19 0 -27 -2 -17 -5z"/>
<path d="M1327 1793 c-4 -3 -7 -93 -7 -199 0 -190 0 -192 23 -198 43 -11 355
-7 363 6 4 6 9 99 10 205 l3 193 -193 0 c-106 0 -196 -3 -199 -7z"/>
<path d="M2505 1780 c3 -5 8 -10 11 -10 2 0 4 5 4 10 0 6 -5 10 -11 10 -5 0
-7 -4 -4 -10z"/>
<path d="M1977 1752 c6 -4 13 -25 16 -47 4 -40 4 -40 5 8 2 39 -1 47 -15 47
-12 0 -14 -3 -6 -8z"/>
<path d="M3121 1714 c0 -11 3 -14 6 -6 3 7 2 16 -1 19 -3 4 -6 -2 -5 -13z"/>
<path d="M2421 1714 c-1 -6 9 -19 22 -30 12 -10 16 -12 10 -4 -10 11 -10 17 0
29 10 14 10 14 -5 3 -13 -10 -17 -10 -21 0 -3 7 -6 8 -6 2z"/>
<path d="M2480 1700 c0 -5 5 -10 11 -10 5 0 7 5 4 10 -3 6 -8 10 -11 10 -2 0
-4 -4 -4 -10z"/>
<path d="M2530 1690 c-6 -11 -8 -20 -6 -20 3 0 10 9 16 20 6 11 8 20 6 20 -3
0 -10 -9 -16 -20z"/>
<path d="M1036 1672 c-3 -3 -1 -11 6 -19 8 -10 9 -83 6 -259 -6 -272 -7 -267
60 -281 44 -9 868 -11 877 -2 3 4 7 48 10 99 3 79 6 95 26 116 16 17 20 27 12
35 -8 8 -13 8 -17 0 -13 -20 -25 -11 -23 17 1 18 -3 27 -13 27 -8 0 -19 9 -25
19 -15 29 -35 31 -35 4 0 -12 -4 -29 -9 -36 -6 -10 -10 -7 -15 11 -4 19 -11
24 -27 20 -16 -4 -19 -11 -15 -29 7 -28 -7 -39 -24 -19 -7 8 -16 15 -21 15
-17 0 -9 -27 16 -50 34 -32 35 -87 3 -95 -13 -3 -162 -4 -332 -3 l-309 3 -1
201 c-2 206 -7 234 -42 234 -12 0 -12 -5 1 -29 14 -27 5 -55 -10 -31 -3 5 -4
10 -1 10 3 0 -2 9 -11 20 -26 30 -31 25 -26 -27 4 -34 2 -45 -5 -38 -6 6 -12
27 -14 47 -1 25 -7 38 -19 41 -10 3 -20 2 -23 -1z"/>
<path d="M2590 1650 c0 -5 6 -10 14 -10 8 0 18 5 21 10 3 6 -3 10 -14 10 -12
0 -21 -4 -21 -10z"/>
<path d="M1988 1538 c2 -62 5 -114 8 -117 2 -2 4 48 4 112 0 65 -3 117 -7 117
-5 0 -7 -50 -5 -112z"/>
<path d="M2324 1625 c-14 -21 -14 -30 -4 -55 16 -38 51 -48 86 -25 14 9 23 19
20 22 -3 3 -12 0 -20 -6 -21 -17 -60 -10 -64 12 -3 16 1 18 26 12 19 -4 33 -2
38 6 4 7 3 10 -3 6 -14 -9 -64 15 -59 28 2 6 19 9 40 9 20 -1 36 3 36 7 0 5
-18 9 -40 9 -31 0 -43 -5 -56 -25z"/>
<path d="M2555 1639 c-4 -6 -5 -12 -2 -15 2 -3 7 2 10 11 7 17 1 20 -8 4z"/>
<path d="M1010 1630 c0 -5 5 -10 11 -10 5 0 7 5 4 10 -3 6 -8 10 -11 10 -2 0
-4 -4 -4 -10z"/>
<path d="M2671 1614 c0 -11 3 -14 6 -6 3 7 2 16 -1 19 -3 4 -6 -2 -5 -13z"/>
<path d="M2235 1600 c4 -6 11 -8 16 -5 14 9 11 15 -7 15 -8 0 -12 -5 -9 -10z"/>
<path d="M1871 1574 c0 -11 3 -14 6 -6 3 7 2 16 -1 19 -3 4 -6 -2 -5 -13z"/>
<path d="M3110 1561 c0 -25 6 -27 13 -6 4 8 2 17 -3 20 -6 4 -10 -3 -10 -14z"/>
<path d="M2653 1555 c0 -8 4 -12 9 -9 5 3 6 10 3 15 -9 13 -12 11 -12 -6z"/>
<path d="M1888 1493 c5 -21 7 -23 10 -9 2 10 0 22 -6 28 -6 6 -7 0 -4 -19z"/>
<path d="M2748 1513 c17 -2 47 -2 65 0 17 2 3 4 -33 4 -36 0 -50 -2 -32 -4z"/>
<path d="M2933 1503 c15 -2 39 -2 55 0 15 2 2 4 -28 4 -30 0 -43 -2 -27 -4z"/>
<path d="M3048 1503 c7 -3 16 -2 19 1 4 3 -2 6 -13 5 -11 0 -14 -3 -6 -6z"/>
<path d="M3632 1470 c0 -14 2 -19 5 -12 2 6 2 18 0 25 -3 6 -5 1 -5 -13z"/>
<path d="M3532 1450 c0 -14 2 -19 5 -12 2 6 2 18 0 25 -3 6 -5 1 -5 -13z"/>
<path d="M3186 1452 c-2 -4 -1 -14 4 -22 7 -11 9 -9 7 8 -1 24 -3 26 -11 14z"/>
<path d="M3550 1449 c0 -5 9 -9 20 -9 11 0 20 2 20 4 0 2 -9 6 -20 9 -11 3
-20 1 -20 -4z"/>
<path d="M2710 1434 c0 -23 29 -35 77 -31 l48 3 -52 2 c-38 2 -55 7 -62 20 -6
9 -11 12 -11 6z"/>
<path d="M2955 1390 c-3 -5 -2 -10 4 -10 5 0 13 5 16 10 3 6 2 10 -4 10 -5 0
-13 -4 -16 -10z"/>
<path d="M2845 1380 c3 -5 8 -10 11 -10 2 0 4 5 4 10 0 6 -5 10 -11 10 -5 0
-7 -4 -4 -10z"/>
<path d="M3273 1383 c9 -2 25 -2 35 0 9 3 1 5 -18 5 -19 0 -27 -2 -17 -5z"/>
<path d="M3547 1383 c10 -3 9 -8 -2 -20 -20 -19 -29 -59 -19 -80 6 -14 9 -9
12 19 4 43 23 54 47 28 15 -17 16 -22 4 -37 -13 -16 -12 -17 4 -4 9 7 17 24
17 37 0 13 4 24 9 24 15 0 21 -29 10 -56 -11 -30 -3 -46 11 -24 11 18 13 80 2
96 -4 6 -29 13 -57 16 -27 3 -44 3 -38 1z"/>
<path d="M3205 1371 c-3 -5 0 -13 6 -17 7 -4 9 -3 5 4 -3 6 3 12 16 15 23 4
23 4 1 6 -12 0 -24 -3 -28 -8z"/>
<path d="M3100 1308 c0 -34 3 -58 7 -54 9 9 10 116 1 116 -5 0 -8 -28 -8 -62z"/>
<path d="M2870 1339 c0 -5 5 -7 10 -4 6 3 10 8 10 11 0 2 -4 4 -10 4 -5 0 -10
-5 -10 -11z"/>
<path d="M2947 1316 c-10 -26 -9 -40 6 -60 12 -16 13 -13 9 20 -5 54 -7 61
-15 40z"/>
<path d="M3346 1315 c-3 -9 -6 -26 -5 -38 1 -14 4 -9 9 13 9 37 7 52 -4 25z"/>
<path d="M2694 1246 c-8 -22 3 -33 18 -18 15 15 55 16 63 2 3 -5 1 -10 -5 -10
-7 0 -23 -9 -37 -20 -27 -21 -24 -27 6 -11 10 6 23 6 32 1 12 -8 10 -13 -8
-31 -18 -19 -24 -20 -38 -9 -19 15 -30 7 -21 -16 5 -13 14 -15 44 -10 20 3 42
7 48 8 11 1 14 12 15 67 1 43 -9 52 -65 58 -37 5 -47 2 -52 -11z"/>
<path d="M3718 1253 c7 -3 16 -2 19 1 4 3 -2 6 -13 5 -11 0 -14 -3 -6 -6z"/>
<path d="M2829 1237 c6 -8 7 -18 3 -22 -4 -5 -2 -5 5 -1 14 8 6 36 -9 36 -7 0
-6 -5 1 -13z"/>
<path d="M3393 1243 c15 -2 37 -2 50 0 12 2 0 4 -28 4 -27 0 -38 -2 -22 -4z"/>
<path d="M2972 1225 c-7 -8 -8 -15 -3 -15 5 0 13 4 16 10 3 5 21 9 40 8 19 -1
38 2 42 5 3 4 -14 7 -38 7 -26 -1 -49 -7 -57 -15z"/>
<path d="M3480 1231 c0 -5 -8 -12 -17 -14 -10 -3 -6 -4 10 -4 27 1 35 11 17
22 -5 3 -10 2 -10 -4z"/>
<path d="M2898 1220 c13 -16 16 -51 5 -66 -5 -5 0 -1 10 9 22 25 22 30 -5 53
-13 10 -17 12 -10 4z"/>
<path d="M3662 1185 c-1 -23 3 -46 10 -53 15 -15 65 -16 74 0 4 7 3 8 -5 4 -6
-4 -25 -5 -41 -1 -25 6 -29 11 -33 48 l-4 42 -1 -40z"/>
<path d="M3765 1210 c-3 -5 -1 -10 4 -10 6 0 11 5 11 10 0 6 -2 10 -4 10 -3 0
-8 -4 -11 -10z"/>
<path d="M2850 1185 c0 -8 7 -15 15 -15 8 0 15 7 15 15 0 8 -7 15 -15 15 -8 0
-15 -7 -15 -15z"/>
<path d="M2208 1182 c-47 -2 -58 -6 -58 -20 0 -27 20 -42 55 -42 34 0 59 15
68 42 8 22 3 24 -65 20z"/>
<path d="M3700 1180 c-13 -8 -12 -10 3 -10 9 0 17 5 17 10 0 12 -1 12 -20 0z"/>
<path d="M2430 1163 c0 -19 30 -43 54 -43 24 0 56 28 56 48 0 8 -18 11 -55 10
-34 -2 -55 -7 -55 -15z"/>
<path d="M3281 1164 c0 -11 3 -14 6 -6 3 7 2 16 -1 19 -3 4 -6 -2 -5 -13z"/>
<path d="M2834 1141 c13 -14 30 -21 55 -20 l36 1 -35 9 c-19 5 -44 14 -55 21
-20 11 -20 11 -1 -11z"/>
<path d="M3000 1128 c0 -4 -15 -9 -32 -11 -18 -2 -10 -3 17 -1 28 2 76 4 108
4 31 0 57 3 57 8 0 4 -34 7 -75 7 -41 0 -75 -3 -75 -7z"/>
<path d="M3168 1128 c5 -5 16 -8 23 -6 8 3 3 7 -10 11 -17 4 -21 3 -13 -5z"/>
<path d="M3286 1128 c3 -4 9 -8 15 -8 5 0 9 4 9 8 0 5 -7 9 -15 9 -8 0 -12 -4
-9 -9z"/>
<path d="M3340 1129 c-19 -5 -12 -7 28 -8 28 -1 52 2 52 7 0 9 -48 10 -80 1z"/>
<path d="M2614 936 c-10 -26 4 -48 28 -44 17 2 23 10 23 28 0 18 -6 26 -23 28
-13 2 -25 -3 -28 -12z"/>
<path d="M2700 861 c-15 -29 -12 -49 10 -71 26 -26 46 -25 75 4 26 26 25 51
-3 74 -24 19 -70 15 -82 -7z"/>
<path d="M2581 826 c-16 -19 -6 -36 20 -36 15 0 20 6 17 22 -4 27 -21 33 -37
14z"/>
</g>
</svg>
